<svg id="Layer_2" data-name="Layer 2" xmlns="http://www.w3.org/2000/svg" width="38px" height="38px" viewBox="-50 -30 360 300"><defs><style>.w{fill:#fff};.cls-1{fill-rule:evenodd}</style></defs><ellipse class="w" cx="207.98" cy="187.07" rx="54.35" ry="53.07"/><polygon points="242.97 178.07 216.97 178.07 216.97 152.07 198.97 152.07 198.97 178.07 172.97 178.07 172.97 196.07 198.97 196.07 198.97 222.07 216.97 222.07 216.97 196.07 242.97 196.07 242.97 178.07"/><path class="w" d="M695.17,451.8l-5.33-3.11V423.93h11.54a63.57,63.57,0,0,1,16.53-21H572.84v-118h198V388.79a65.19,65.19,0,0,1,21,7.36V263.93h-240v160h102v24.76l-66.4,38.72a8.5,8.5,0,0,0,4.29,15.84,8.39,8.39,0,0,0,4.27-1.16l75.84-44.22,27.78,16.2A61.65,61.65,0,0,1,695.17,451.8Z" transform="translate(-551.84 -263.93)"/><polygon class="w" points="51.66 115.47 37.19 100.25 77.73 61.7 96.17 79.59 131.9 44.76 146.56 59.8 96.2 108.88 77.58 90.82 51.66 115.47"/><rect class="w" x="172.11" y="52.02" width="24.52" height="21"/><rect class="w" x="152.11" y="89.08" width="44.52" height="21"/></svg>
