<svg id="Layer_2" width="38px" height="38px" xmlns="http://www.w3.org/2000/svg" viewBox="-40 -20 300 240"><defs><style>.w{fill:#fff}</style></defs><path class="w" d="M745.64,331.57a28.56,28.56,0,1,0-28.56,28.56A28.56,28.56,0,0,0,745.64,331.57Zm-12.52,0a16,16,0,1,1-16-16A16.05,16.05,0,0,1,733.12,331.57Z" transform="translate(-577.36 -296.82)"/><ellipse class="w" cx="161.93" cy="123.28" rx="54.35" ry="53.07"/><polygon class="cls-1" points="196.93 114.28 170.93 114.28 170.93 88.28 152.93 88.28 152.93 114.28 126.93 114.28 126.93 132.28 152.93 132.28 152.93 158.28 170.93 158.28 170.93 132.28 196.93 132.28 196.93 114.28"/><path class="w" d="M673.14,333.32a36.5,36.5,0,1,0-36.5,36.5A36.5,36.5,0,0,0,673.14,333.32Zm-16,0a20.5,20.5,0,1,1-20.5-20.5A20.52,20.52,0,0,1,657.14,333.32Z" transform="translate(-577.36 -296.82)"/><path class="w" d="M688.52,380.37H610.36a33,33,0,0,0-33,33v38.47h15V413.37a18,18,0,0,1,18-18h68.3A53.36,53.36,0,0,1,688.52,380.37Z" transform="translate(-577.36 -296.82)"/></svg>
